<?xml version="1.0" standalone="no"?>
<!DOCTYPE svg PUBLIC "-//W3C//DTD SVG 20010904//EN"
 "http://www.w3.org/TR/2001/REC-SVG-20010904/DTD/svg10.dtd">
<svg version="1.0" xmlns="http://www.w3.org/2000/svg"
 width="700.000000pt" height="700.000000pt" viewBox="0 0 700.000000 700.000000"
 preserveAspectRatio="xMidYMid meet">
<metadata>
Created by potrace 1.11, written by Peter Selinger 2001-2013
</metadata>
<g transform="translate(0.000000,700.000000) scale(0.100000,-0.100000)"
fill="#000000" stroke="none">
<path d="M3430 6984 c-19 -8 -37 -18 -40 -22 -4 -6 -567 -458 -720 -579 -21
-16 -101 -81 -125 -101 -11 -10 -85 -69 -165 -132 -80 -63 -154 -122 -165
-132 -18 -15 -191 -155 -291 -233 -82 -65 -511 -409 -549 -440 -22 -18 -80
-65 -130 -104 -49 -39 -97 -77 -105 -84 -9 -7 -83 -67 -165 -133 -83 -65 -152
-121 -155 -124 -3 -3 -59 -48 -125 -100 -66 -52 -128 -104 -138 -115 -50 -55
-47 76 -47 -2320 0 -2057 1 -2239 16 -2268 10 -18 26 -40 38 -51 55 -49 -108
-46 2939 -46 l2854 0 43 23 c30 16 51 37 67 67 l23 43 0 1634 c0 1407 -2 1638
-14 1662 -17 31 -80 91 -99 92 -7 0 -25 3 -41 5 -37 6 -106 -19 -134 -49 -53
-56 -51 24 -51 -1577 0 -817 0 -1502 -1 -1522 l0 -38 -908 0 -909 0 1 947 c1
662 -2 960 -10 990 -13 52 -52 95 -102 115 -51 19 -1386 19 -1444 -1 -47 -16
-95 -70 -104 -118 -4 -21 -8 -384 -7 -808 0 -766 0 -770 21 -811 58 -113 218
-120 289 -13 l28 43 0 687 c0 603 2 688 15 691 8 2 231 4 494 3 l480 0 0 -863
1 -862 -1572 0 -1573 0 0 63 c0 79 0 3882 0 3999 l0 88 222 177 c123 98 232
185 243 195 63 52 111 90 210 168 39 30 72 57 75 60 3 3 86 70 185 149 99 78
189 150 200 160 11 9 256 205 545 436 289 231 534 428 545 437 73 62 421 338
425 338 3 0 151 -118 330 -261 179 -144 341 -274 360 -289 19 -15 112 -89 205
-164 94 -75 177 -143 186 -150 10 -8 48 -38 85 -67 38 -30 71 -56 74 -59 3 -3
50 -41 105 -85 55 -44 107 -85 115 -92 8 -7 182 -146 385 -309 204 -162 379
-303 390 -312 11 -9 131 -106 267 -214 215 -171 253 -197 291 -203 106 -16
196 60 197 166 0 75 -27 105 -255 284 -21 17 -43 35 -49 40 -6 6 -42 35 -81
65 -38 30 -72 57 -75 60 -3 3 -106 86 -230 185 -124 99 -230 184 -237 190 -18
15 7 -5 -641 513 -331 265 -610 489 -620 497 -9 7 -82 66 -162 130 -80 63
-152 121 -160 128 -8 7 -49 39 -90 72 -97 78 -94 75 -170 137 -36 29 -67 55
-70 58 -3 3 -23 17 -46 33 -49 33 -123 42 -174 21z"/>
</g>
</svg>
